<svg
    id="visual"
    viewBox="0 100 1000 200"
    xmlns="http://www.w3.org/2000/svg"
    xmlns:xlink="http://www.w3.org/1999/xlink"
    version="1.1"
    preserveAspectRatio="none"
>
    <!-- <rect x="0" y="0" width="1000" height="200" fill="#3d2645"></rect> -->
    <path
        d="M0 134L23.8 136.3C47.7 138.7 95.3 143.3 143 143C190.7 142.7 238.3 137.3 286 137C333.7 136.7 381.3 141.3 428.8 141.5C476.3 141.7 523.7 137.3 571.2 135.7C618.7 134 666.3 135 714 132.2C761.7 129.3 809.3 122.7 857 119.3C904.7 116 952.3 116 976.2 116L1000 116L1000 201L976.2 201C952.3 201 904.7 201 857 201C809.3 201 761.7 201 714 201C666.3 201 618.7 201 571.2 201C523.7 201 476.3 201 428.8 201C381.3 201 333.7 201 286 201C238.3 201 190.7 201 143 201C95.3 201 47.7 201 23.8 201L0 201Z"
        fill="#da4167"
    ></path>
    <path
        d="M0 132L23.8 133.7C47.7 135.3 95.3 138.7 143 136.5C190.7 134.3 238.3 126.7 286 124.2C333.7 121.7 381.3 124.3 428.8 130.8C476.3 137.3 523.7 147.7 571.2 154.7C618.7 161.7 666.3 165.3 714 160.8C761.7 156.3 809.3 143.7 857 138.8C904.7 134 952.3 137 976.2 138.5L1000 140L1000 201L976.2 201C952.3 201 904.7 201 857 201C809.3 201 761.7 201 714 201C666.3 201 618.7 201 571.2 201C523.7 201 476.3 201 428.8 201C381.3 201 333.7 201 286 201C238.3 201 190.7 201 143 201C95.3 201 47.7 201 23.8 201L0 201Z"
        fill="#c53768"
    ></path>
    <path
        d="M0 162L23.8 165C47.7 168 95.3 174 143 169.2C190.7 164.3 238.3 148.7 286 141.5C333.7 134.3 381.3 135.7 428.8 143.2C476.3 150.7 523.7 164.3 571.2 169C618.7 173.7 666.3 169.3 714 165.5C761.7 161.7 809.3 158.3 857 161.2C904.7 164 952.3 173 976.2 177.5L1000 182L1000 201L976.2 201C952.3 201 904.7 201 857 201C809.3 201 761.7 201 714 201C666.3 201 618.7 201 571.2 201C523.7 201 476.3 201 428.8 201C381.3 201 333.7 201 286 201C238.3 201 190.7 201 143 201C95.3 201 47.7 201 23.8 201L0 201Z"
        fill="#b02e67"
    ></path>
    <path
        d="M0 157L23.8 161.5C47.7 166 95.3 175 143 175.8C190.7 176.7 238.3 169.3 286 164.8C333.7 160.3 381.3 158.7 428.8 160.8C476.3 163 523.7 169 571.2 170.3C618.7 171.7 666.3 168.3 714 168.5C761.7 168.7 809.3 172.3 857 176.2C904.7 180 952.3 184 976.2 186L1000 188L1000 201L976.2 201C952.3 201 904.7 201 857 201C809.3 201 761.7 201 714 201C666.3 201 618.7 201 571.2 201C523.7 201 476.3 201 428.8 201C381.3 201 333.7 201 286 201C238.3 201 190.7 201 143 201C95.3 201 47.7 201 23.8 201L0 201Z"
        fill="#9a2765"
    ></path>
    <path
        d="M0 180L23.8 178C47.7 176 95.3 172 143 173.5C190.7 175 238.3 182 286 182.5C333.7 183 381.3 177 428.8 178.2C476.3 179.3 523.7 187.7 571.2 190.5C618.7 193.3 666.3 190.7 714 190.8C761.7 191 809.3 194 857 190.8C904.7 187.7 952.3 178.3 976.2 173.7L1000 169L1000 201L976.2 201C952.3 201 904.7 201 857 201C809.3 201 761.7 201 714 201C666.3 201 618.7 201 571.2 201C523.7 201 476.3 201 428.8 201C381.3 201 333.7 201 286 201C238.3 201 190.7 201 143 201C95.3 201 47.7 201 23.8 201L0 201Z"
        fill="#832161"
    ></path>
</svg>
