<svg
    id="visual"
    viewBox="0 0 1000 200"
    xmlns="http://www.w3.org/2000/svg"
    xmlns:xlink="http://www.w3.org/1999/xlink"
    version="1.1"
    preserveAspectRatio="none"
>
    <path
        d="M0 128L23.8 127.3C47.7 126.7 95.3 125.3 143 120.5C190.7 115.7 238.3 107.3 286 109.7C333.7 112 381.3 125 428.8 126C476.3 127 523.7 116 571.2 115.8C618.7 115.7 666.3 126.3 714 126.8C761.7 127.3 809.3 117.7 857 111.8C904.7 106 952.3 104 976.2 103L1000 102L1000 0L976.2 0C952.3 0 904.7 0 857 0C809.3 0 761.7 0 714 0C666.3 0 618.7 0 571.2 0C523.7 0 476.3 0 428.8 0C381.3 0 333.7 0 286 0C238.3 0 190.7 0 143 0C95.3 0 47.7 0 23.8 0L0 0Z"
        fill="#da4167"
    ></path>
    <path
        d="M0 122L23.8 121.8C47.7 121.7 95.3 121.3 143 118.7C190.7 116 238.3 111 286 104.5C333.7 98 381.3 90 428.8 87.3C476.3 84.7 523.7 87.3 571.2 87.2C618.7 87 666.3 84 714 86.5C761.7 89 809.3 97 857 96.8C904.7 96.7 952.3 88.3 976.2 84.2L1000 80L1000 0L976.2 0C952.3 0 904.7 0 857 0C809.3 0 761.7 0 714 0C666.3 0 618.7 0 571.2 0C523.7 0 476.3 0 428.8 0C381.3 0 333.7 0 286 0C238.3 0 190.7 0 143 0C95.3 0 47.7 0 23.8 0L0 0Z"
        fill="#c53768"
    ></path>
    <path
        d="M0 92L23.8 90C47.7 88 95.3 84 143 79.3C190.7 74.7 238.3 69.3 286 71.2C333.7 73 381.3 82 428.8 82.5C476.3 83 523.7 75 571.2 69.5C618.7 64 666.3 61 714 61C761.7 61 809.3 64 857 63.2C904.7 62.3 952.3 57.7 976.2 55.3L1000 53L1000 0L976.2 0C952.3 0 904.7 0 857 0C809.3 0 761.7 0 714 0C666.3 0 618.7 0 571.2 0C523.7 0 476.3 0 428.8 0C381.3 0 333.7 0 286 0C238.3 0 190.7 0 143 0C95.3 0 47.7 0 23.8 0L0 0Z"
        fill="#b02e67"
    ></path>
    <path
        d="M0 63L23.8 63.3C47.7 63.7 95.3 64.3 143 61C190.7 57.7 238.3 50.3 286 46C333.7 41.7 381.3 40.3 428.8 40C476.3 39.7 523.7 40.3 571.2 42C618.7 43.7 666.3 46.3 714 49.2C761.7 52 809.3 55 857 57.7C904.7 60.3 952.3 62.7 976.2 63.8L1000 65L1000 0L976.2 0C952.3 0 904.7 0 857 0C809.3 0 761.7 0 714 0C666.3 0 618.7 0 571.2 0C523.7 0 476.3 0 428.8 0C381.3 0 333.7 0 286 0C238.3 0 190.7 0 143 0C95.3 0 47.7 0 23.8 0L0 0Z"
        fill="#9a2765"
    ></path>
    <path
        d="M0 29L23.8 28.2C47.7 27.3 95.3 25.7 143 27C190.7 28.3 238.3 32.7 286 33.5C333.7 34.3 381.3 31.7 428.8 31.3C476.3 31 523.7 33 571.2 30.7C618.7 28.3 666.3 21.7 714 20.2C761.7 18.7 809.3 22.3 857 23C904.7 23.7 952.3 21.3 976.2 20.2L1000 19L1000 0L976.2 0C952.3 0 904.7 0 857 0C809.3 0 761.7 0 714 0C666.3 0 618.7 0 571.2 0C523.7 0 476.3 0 428.8 0C381.3 0 333.7 0 286 0C238.3 0 190.7 0 143 0C95.3 0 47.7 0 23.8 0L0 0Z"
        fill="#832161"
    ></path>
</svg>
